<?xml version="1.0" encoding="UTF-8"?>
<!DOCTYPE svg PUBLIC "-//W3C//DTD SVG 1.1//EN" "http://www.w3.org/Graphics/SVG/1.1/DTD/svg11.dtd">
<svg xmlns="http://www.w3.org/2000/svg" version="1.1" width="50px" height="35px" style="shape-rendering:geometricPrecision; text-rendering:geometricPrecision; image-rendering:optimizeQuality; fill-rule:evenodd; clip-rule:evenodd" xmlns:xlink="http://www.w3.org/1999/xlink">
<g><path style="opacity:0.82" fill="#d55b5b" d="M -0.5,-0.5 C 16.1667,-0.5 32.8333,-0.5 49.5,-0.5C 49.5,3.5 49.5,7.5 49.5,11.5C 49.1667,11.5 48.8333,11.5 48.5,11.5C 48.5,7.83333 48.5,4.16667 48.5,0.5C 32.5,0.5 16.5,0.5 0.5,0.5C 0.5,4.16667 0.5,7.83333 0.5,11.5C 0.166667,11.5 -0.166667,11.5 -0.5,11.5C -0.5,7.5 -0.5,3.5 -0.5,-0.5 Z"/></g>
<g><path style="opacity:1" fill="#f48e8e" d="M 48.5,11.5 C 42.9738,11.8214 37.6405,11.4881 32.5,10.5C 32.5,9.16667 32.5,7.83333 32.5,6.5C 31.5,6.5 30.5,6.5 29.5,6.5C 28.4324,5.56552 27.099,5.23219 25.5,5.5C 24.8333,5.5 24.1667,5.5 23.5,5.5C 22.0413,5.43255 20.7079,5.76589 19.5,6.5C 18.5,6.5 17.5,6.5 16.5,6.5C 16.5,7.83333 16.5,9.16667 16.5,10.5C 11.3595,11.4881 6.02621,11.8214 0.5,11.5C 0.5,7.83333 0.5,4.16667 0.5,0.5C 16.5,0.5 32.5,0.5 48.5,0.5C 48.5,4.16667 48.5,7.83333 48.5,11.5 Z"/></g>
<g><path style="opacity:1" fill="#81c7d3" d="M 19.5,6.5 C 20.2341,7.70792 20.5674,9.04125 20.5,10.5C 19.8333,10.5 19.5,10.8333 19.5,11.5C 19.1667,11.5 18.8333,11.5 18.5,11.5C 18.1667,11.5 17.8333,11.5 17.5,11.5C 17.5,10.8333 17.1667,10.5 16.5,10.5C 16.5,9.16667 16.5,7.83333 16.5,6.5C 17.5,6.5 18.5,6.5 19.5,6.5 Z"/></g>
<g><path style="opacity:1" fill="#82c9d4" d="M 29.5,6.5 C 30.5,6.5 31.5,6.5 32.5,6.5C 32.5,7.83333 32.5,9.16667 32.5,10.5C 31.8333,10.5 31.5,10.8333 31.5,11.5C 31.1667,11.5 30.8333,11.5 30.5,11.5C 30.1667,11.5 29.8333,11.5 29.5,11.5C 29.5,10.8333 29.1667,10.5 28.5,10.5C 28.4326,9.04125 28.7659,7.70792 29.5,6.5 Z"/></g>
<g><path style="opacity:1" fill="#7fa8ca" d="M 23.5,5.5 C 24.1667,10.8333 24.8333,10.8333 25.5,5.5C 27.099,5.23219 28.4324,5.56552 29.5,6.5C 28.7659,7.70792 28.4326,9.04125 28.5,10.5C 25.8333,10.5 23.1667,10.5 20.5,10.5C 20.5674,9.04125 20.2341,7.70792 19.5,6.5C 20.7079,5.76589 22.0413,5.43255 23.5,5.5 Z"/></g>
<g><path style="opacity:1" fill="#89dce7" d="M 23.5,5.5 C 24.1667,5.5 24.8333,5.5 25.5,5.5C 24.8333,10.8333 24.1667,10.8333 23.5,5.5 Z"/></g>
<g><path style="opacity:1" fill="#e1797a" d="M 19.5,11.5 C 19.5,10.8333 19.8333,10.5 20.5,10.5C 23.1667,10.5 25.8333,10.5 28.5,10.5C 29.1667,10.5 29.5,10.8333 29.5,11.5C 28.5416,11.9528 27.7083,12.6195 27,13.5C 25.4506,10.9974 23.7839,10.9974 22,13.5C 21.5831,12.244 20.7498,11.5774 19.5,11.5 Z"/></g>
<g><path style="opacity:1" fill="#e0b5ba" d="M 16.5,10.5 C 17.1667,10.5 17.5,10.8333 17.5,11.5C 17.5,11.8333 17.5,12.1667 17.5,12.5C 11.5,12.5 5.5,12.5 -0.5,12.5C -0.5,12.1667 -0.5,11.8333 -0.5,11.5C -0.166667,11.5 0.166667,11.5 0.5,11.5C 6.02621,11.8214 11.3595,11.4881 16.5,10.5 Z"/></g>
<g><path style="opacity:1" fill="#e0b5ba" d="M 32.5,10.5 C 37.6405,11.4881 42.9738,11.8214 48.5,11.5C 48.8333,11.5 49.1667,11.5 49.5,11.5C 49.5,11.8333 49.5,12.1667 49.5,12.5C 43.5,12.5 37.5,12.5 31.5,12.5C 31.5,12.1667 31.5,11.8333 31.5,11.5C 31.5,10.8333 31.8333,10.5 32.5,10.5 Z"/></g>
<g><path style="opacity:1" fill="#eef7fd" d="M -0.5,12.5 C 5.5,12.5 11.5,12.5 17.5,12.5C 17.5,15.8333 17.5,19.1667 17.5,22.5C 11.5,22.5 5.5,22.5 -0.5,22.5C -0.5,19.1667 -0.5,15.8333 -0.5,12.5 Z"/></g>
<g><path style="opacity:1" fill="#eef7fd" d="M 31.5,12.5 C 37.5,12.5 43.5,12.5 49.5,12.5C 49.5,15.8333 49.5,19.1667 49.5,22.5C 43.5,22.5 37.5,22.5 31.5,22.5C 31.5,19.1667 31.5,15.8333 31.5,12.5 Z"/></g>
<g><path style="opacity:1" fill="#e78c8c" d="M 17.5,11.5 C 17.8333,11.5 18.1667,11.5 18.5,11.5C 18.4802,13.143 19.1468,14.4763 20.5,15.5C 17.9422,17.1201 17.9422,18.6201 20.5,20C 19.244,20.4169 18.5774,21.2502 18.5,22.5C 18.1667,22.5 17.8333,22.5 17.5,22.5C 17.5,19.1667 17.5,15.8333 17.5,12.5C 17.5,12.1667 17.5,11.8333 17.5,11.5 Z"/></g>
<g><path style="opacity:1" fill="#e78c8c" d="M 30.5,11.5 C 30.8333,11.5 31.1667,11.5 31.5,11.5C 31.5,11.8333 31.5,12.1667 31.5,12.5C 31.5,15.8333 31.5,19.1667 31.5,22.5C 31.1667,22.5 30.8333,22.5 30.5,22.5C 30.4226,21.2502 29.756,20.4169 28.5,20C 31.0578,18.6201 31.0578,17.1201 28.5,15.5C 29.8532,14.4763 30.5198,13.143 30.5,11.5 Z"/></g>
<g><path style="opacity:1" fill="#f2c9cd" d="M 18.5,11.5 C 18.8333,11.5 19.1667,11.5 19.5,11.5C 20.7498,11.5774 21.5831,12.244 22,13.5C 23.7839,10.9974 25.4506,10.9974 27,13.5C 27.7083,12.6195 28.5416,11.9528 29.5,11.5C 29.8333,11.5 30.1667,11.5 30.5,11.5C 30.5198,13.143 29.8532,14.4763 28.5,15.5C 31.0578,17.1201 31.0578,18.6201 28.5,20C 29.756,20.4169 30.4226,21.2502 30.5,22.5C 30.5,22.8333 30.5,23.1667 30.5,23.5C 26.5452,27.4875 22.5452,27.4875 18.5,23.5C 18.5,23.1667 18.5,22.8333 18.5,22.5C 18.5774,21.2502 19.244,20.4169 20.5,20C 17.9422,18.6201 17.9422,17.1201 20.5,15.5C 19.1468,14.4763 18.4802,13.143 18.5,11.5 Z"/></g>
<g><path style="opacity:0.82" fill="#6792c8" d="M -0.5,22.5 C 5.5,22.5 11.5,22.5 17.5,22.5C 17.8333,22.5 18.1667,22.5 18.5,22.5C 18.5,22.8333 18.5,23.1667 18.5,23.5C 12.5,23.5 6.5,23.5 0.5,23.5C 0.5,26.8333 0.5,30.1667 0.5,33.5C 16.5,33.5 32.5,33.5 48.5,33.5C 48.5,30.1667 48.5,26.8333 48.5,23.5C 42.5,23.5 36.5,23.5 30.5,23.5C 30.5,23.1667 30.5,22.8333 30.5,22.5C 30.8333,22.5 31.1667,22.5 31.5,22.5C 37.5,22.5 43.5,22.5 49.5,22.5C 49.5,26.5 49.5,30.5 49.5,34.5C 32.8333,34.5 16.1667,34.5 -0.5,34.5C -0.5,30.5 -0.5,26.5 -0.5,22.5 Z"/></g>
<g><path style="opacity:1" fill="#8bb6ef" d="M 18.5,23.5 C 22.5452,27.4875 26.5452,27.4875 30.5,23.5C 36.5,23.5 42.5,23.5 48.5,23.5C 48.5,26.8333 48.5,30.1667 48.5,33.5C 32.5,33.5 16.5,33.5 0.5,33.5C 0.5,30.1667 0.5,26.8333 0.5,23.5C 6.5,23.5 12.5,23.5 18.5,23.5 Z"/></g>
</svg>
