<?xml version="1.0" encoding="UTF-8"?>
<!DOCTYPE svg PUBLIC "-//W3C//DTD SVG 1.1//EN" "http://www.w3.org/Graphics/SVG/1.1/DTD/svg11.dtd">
<svg xmlns="http://www.w3.org/2000/svg" version="1.1" width="50px" height="35px" style="shape-rendering:geometricPrecision; text-rendering:geometricPrecision; image-rendering:optimizeQuality; fill-rule:evenodd; clip-rule:evenodd" xmlns:xlink="http://www.w3.org/1999/xlink">
<g><path style="opacity:1" fill="#f5f1f4" d="M -0.5,0.5 C -0.5,0.166667 -0.5,-0.166667 -0.5,-0.5C 1.5,-0.5 3.5,-0.5 5.5,-0.5C 9.84661,3.16417 14.5133,6.49751 19.5,9.5C 20.487,6.23171 20.8204,2.89838 20.5,-0.5C 20.8333,-0.5 21.1667,-0.5 21.5,-0.5C 21.5,4.5 21.5,9.5 21.5,14.5C 14.5,14.5 7.5,14.5 0.5,14.5C 4.31227,13.6762 8.31227,13.1762 12.5,13C 8.28407,9.94389 3.95074,7.11056 -0.5,4.5C -0.5,4.16667 -0.5,3.83333 -0.5,3.5C 4.86558,6.02099 9.86558,9.18765 14.5,13C 15.5,13.6667 16.5,13.6667 17.5,13C 11.6454,8.57699 5.64545,4.41033 -0.5,0.5 Z"/></g>
<g><path style="opacity:1" fill="#89b3eb" d="M 5.5,-0.5 C 10.5,-0.5 15.5,-0.5 20.5,-0.5C 20.8204,2.89838 20.487,6.23171 19.5,9.5C 14.5133,6.49751 9.84661,3.16417 5.5,-0.5 Z"/></g>
<g><path style="opacity:1" fill="#e17d7d" d="M 21.5,-0.5 C 23.5,-0.5 25.5,-0.5 27.5,-0.5C 27.5,4.5 27.5,9.5 27.5,14.5C 34.5,14.5 41.5,14.5 48.5,14.5C 48.8333,14.5 49.1667,14.5 49.5,14.5C 49.5,16.1667 49.5,17.8333 49.5,19.5C 49.1667,19.5 48.8333,19.5 48.5,19.5C 41.5,19.5 34.5,19.5 27.5,19.5C 33.7424,18.5007 40.7424,18.1674 48.5,18.5C 48.5,17.5 48.5,16.5 48.5,15.5C 41.1591,15.6663 33.8258,15.4997 26.5,15C 25.8572,10.2162 25.1906,5.38292 24.5,0.5C 23.8094,5.38292 23.1428,10.2162 22.5,15C 15.1742,15.4997 7.8409,15.6663 0.5,15.5C 0.5,16.5 0.5,17.5 0.5,18.5C 8.25761,18.1674 15.2576,18.5007 21.5,19.5C 14.5,19.5 7.5,19.5 0.5,19.5C 0.166667,19.5 -0.166667,19.5 -0.5,19.5C -0.5,17.8333 -0.5,16.1667 -0.5,14.5C -0.166667,14.5 0.166667,14.5 0.5,14.5C 7.5,14.5 14.5,14.5 21.5,14.5C 21.5,9.5 21.5,4.5 21.5,-0.5 Z"/></g>
<g><path style="opacity:1" fill="#f48e8e" d="M 27.5,19.5 C 27.5,24.1667 27.5,28.8333 27.5,33.5C 27.5,33.8333 27.5,34.1667 27.5,34.5C 25.5,34.5 23.5,34.5 21.5,34.5C 21.5,34.1667 21.5,33.8333 21.5,33.5C 21.5,28.8333 21.5,24.1667 21.5,19.5C 15.2576,18.5007 8.25761,18.1674 0.5,18.5C 0.5,17.5 0.5,16.5 0.5,15.5C 7.8409,15.6663 15.1742,15.4997 22.5,15C 23.1428,10.2162 23.8094,5.38292 24.5,0.5C 25.1906,5.38292 25.8572,10.2162 26.5,15C 33.8258,15.4997 41.1591,15.6663 48.5,15.5C 48.5,16.5 48.5,17.5 48.5,18.5C 40.7424,18.1674 33.7424,18.5007 27.5,19.5 Z"/></g>
<g><path style="opacity:1" fill="#f3edf0" d="M 27.5,-0.5 C 27.8333,-0.5 28.1667,-0.5 28.5,-0.5C 28.3347,3.18174 28.5014,6.84841 29,10.5C 34.4971,7.17988 39.6638,3.51322 44.5,-0.5C 46.1667,-0.5 47.8333,-0.5 49.5,-0.5C 49.5,1.5 49.5,3.5 49.5,5.5C 45.388,7.72788 41.388,10.2279 37.5,13C 41.3563,13.1773 45.023,13.6773 48.5,14.5C 41.5,14.5 34.5,14.5 27.5,14.5C 27.5,9.5 27.5,4.5 27.5,-0.5 Z"/></g>
<g><path style="opacity:1" fill="#cf5b59" d="M 45.5,0.5 C 48.999,0.259031 49.3323,1.09236 46.5,3C 41.9924,5.75334 37.6591,8.75334 33.5,12C 31.9556,13.1871 30.2889,13.5205 28.5,13C 34.5899,9.30052 40.2566,5.13386 45.5,0.5 Z"/></g>
<g><path style="opacity:1" fill="#88b3eb" d="M 28.5,-0.5 C 33.8333,-0.5 39.1667,-0.5 44.5,-0.5C 39.6638,3.51322 34.4971,7.17988 29,10.5C 28.5014,6.84841 28.3347,3.18174 28.5,-0.5 Z"/></g>
<g><path style="opacity:1" fill="#90b7eb" d="M -0.5,4.5 C 3.95074,7.11056 8.28407,9.94389 12.5,13C 8.31227,13.1762 4.31227,13.6762 0.5,14.5C 0.166667,14.5 -0.166667,14.5 -0.5,14.5C -0.5,11.1667 -0.5,7.83333 -0.5,4.5 Z"/></g>
<g><path style="opacity:1" fill="#ce5b5a" d="M -0.5,0.5 C 5.64545,4.41033 11.6454,8.57699 17.5,13C 16.5,13.6667 15.5,13.6667 14.5,13C 9.86558,9.18765 4.86558,6.02099 -0.5,3.5C -0.5,2.5 -0.5,1.5 -0.5,0.5 Z"/></g>
<g><path style="opacity:1" fill="#91b7eb" d="M 49.5,5.5 C 49.5,8.5 49.5,11.5 49.5,14.5C 49.1667,14.5 48.8333,14.5 48.5,14.5C 45.023,13.6773 41.3563,13.1773 37.5,13C 41.388,10.2279 45.388,7.72788 49.5,5.5 Z"/></g>
<g><path style="opacity:1" fill="#f5f1f5" d="M 0.5,19.5 C 7.5,19.5 14.5,19.5 21.5,19.5C 21.5,24.1667 21.5,28.8333 21.5,33.5C 20.8339,30.3107 20.1672,26.9773 19.5,23.5C 14.1772,26.8368 9.17716,30.5035 4.5,34.5C 2.83333,34.5 1.16667,34.5 -0.5,34.5C -0.5,32.5 -0.5,30.5 -0.5,28.5C 3.61548,26.2245 7.61548,23.7245 11.5,21C 7.6437,20.8227 3.97703,20.3227 0.5,19.5 Z"/></g>
<g><path style="opacity:1" fill="#f7f6f9" d="M 27.5,19.5 C 34.5,19.5 41.5,19.5 48.5,19.5C 45.1667,20.1667 41.8333,20.8333 38.5,21.5C 36.9317,20.5269 35.265,20.3603 33.5,21C 38.9863,24.3295 44.3196,27.8295 49.5,31.5C 49.5,32.5 49.5,33.5 49.5,34.5C 48.5,34.5 47.5,34.5 46.5,34.5C 41.0754,30.2762 35.4088,26.2762 29.5,22.5C 28.8329,26.3125 28.1663,29.9792 27.5,33.5C 27.5,28.8333 27.5,24.1667 27.5,19.5 Z"/></g>
<g><path style="opacity:1" fill="#8cb5ea" d="M -0.5,19.5 C -0.166667,19.5 0.166667,19.5 0.5,19.5C 3.97703,20.3227 7.6437,20.8227 11.5,21C 7.61548,23.7245 3.61548,26.2245 -0.5,28.5C -0.5,25.5 -0.5,22.5 -0.5,19.5 Z"/></g>
<g><path style="opacity:1" fill="#e6e0e9" d="M 38.5,21.5 C 42.2996,23.2336 45.9663,25.2336 49.5,27.5C 49.5,28.1667 49.5,28.8333 49.5,29.5C 45.6183,27.0659 41.9516,24.3993 38.5,21.5 Z"/></g>
<g><path style="opacity:1" fill="#8ab3e9" d="M 48.5,19.5 C 48.8333,19.5 49.1667,19.5 49.5,19.5C 49.5,22.1667 49.5,24.8333 49.5,27.5C 45.9663,25.2336 42.2996,23.2336 38.5,21.5C 41.8333,20.8333 45.1667,20.1667 48.5,19.5 Z"/></g>
<g><path style="opacity:1" fill="#89b3ea" d="M 46.5,34.5 C 40.1667,34.5 33.8333,34.5 27.5,34.5C 27.5,34.1667 27.5,33.8333 27.5,33.5C 28.1663,29.9792 28.8329,26.3125 29.5,22.5C 35.4088,26.2762 41.0754,30.2762 46.5,34.5 Z"/></g>
<g><path style="opacity:1" fill="#87b1e9" d="M 21.5,33.5 C 21.5,33.8333 21.5,34.1667 21.5,34.5C 15.8333,34.5 10.1667,34.5 4.5,34.5C 9.17716,30.5035 14.1772,26.8368 19.5,23.5C 20.1672,26.9773 20.8339,30.3107 21.5,33.5 Z"/></g>
<g><path style="opacity:1" fill="#ce5b59" d="M 38.5,21.5 C 41.9516,24.3993 45.6183,27.0659 49.5,29.5C 49.5,30.1667 49.5,30.8333 49.5,31.5C 44.3196,27.8295 38.9863,24.3295 33.5,21C 35.265,20.3603 36.9317,20.5269 38.5,21.5 Z"/></g>
<g><path style="opacity:1" fill="#cd5755" d="M 17.5,20.5 C 18.552,20.3505 19.552,20.5172 20.5,21C 14.8918,24.2762 9.55846,27.9429 4.5,32C 3.24109,32.9819 1.90775,33.3152 0.5,33C 6.06812,28.584 11.7348,24.4173 17.5,20.5 Z"/></g>
</svg>
